<svg width="570" height="110" viewBox="0 0 570 110" fill="none" xmlns="http://www.w3.org/2000/svg">
<path d="M85.2746 109.769C88.3239 109.769 90.0986 106.323 88.3276 103.841L66.0198 72.5729C64.5349 70.4916 65.5268 67.5707 67.9014 66.6231C69.9291 65.8139 71.8093 64.9307 73.5422 63.9734C76.9025 61.8257 79.6517 59.4478 81.7897 56.8398C84.2335 53.9248 85.9899 50.7799 87.0594 47.4045C88.434 43.7225 89.1213 39.5801 89.1213 34.9777C89.1213 29.6082 88.2049 24.7756 86.3721 20.4798C84.5393 16.3374 81.8664 12.7323 78.3536 9.66388C74.9933 6.7489 70.7169 4.44754 65.5238 2.76002C60.1782 1.07252 54.527 0.228637 48.5703 0.228637H3.75C1.67894 0.228637 0 1.90757 0 3.97864V13.9681C0 16.0391 1.67893 17.7181 3.75 17.7181H46.9663C54.1446 17.7181 59.7193 19.2523 63.6901 22.3205C67.6609 25.3888 69.6468 29.9911 69.6468 36.128C69.6468 41.8044 67.6612 46.2534 63.6901 49.4753C59.7193 52.8507 54.2209 54.5382 47.195 54.5382H3.75C1.67893 54.5382 0 56.2171 0 58.2882V106.018C0 108.089 1.67893 109.768 3.75 109.768H15.2652C17.3363 109.768 19.0152 108.089 19.0152 106.018V75.3166C19.0152 73.2456 20.6942 71.5666 22.7652 71.5666H41.1207C42.3429 71.5666 43.4884 72.1622 44.1904 73.1627L68.7551 108.172C69.4571 109.172 70.6025 109.768 71.8246 109.768L85.2746 109.769ZM173.2 45.795V3.75C173.2 1.67893 171.521 0 169.45 0H157.706C155.634 0 153.956 1.67893 153.956 3.75V106.25C153.956 108.321 155.634 110 157.706 110H169.45C171.521 110 173.2 108.321 173.2 106.25V45.795ZM249.5 2.40046C248.942 0.954006 247.551 0 246.001 0H233.306C230.705 0 228.894 2.58461 229.782 5.03004L266.922 107.3C267.46 108.783 268.869 109.77 270.447 109.77H283.374C285.959 109.77 287.769 107.216 286.911 104.776L265.528 43.954L249.5 2.40046ZM330.804 5.15195C331.798 2.68739 329.984 0 327.326 0H315.241C313.717 0 312.344 0.922841 311.769 2.33451L289.448 57.0928C289.092 57.9668 289.078 58.943 289.41 59.8266L295.359 75.6671C296.561 78.8681 301.069 78.9221 302.347 75.7508L330.804 5.15195ZM357.396 3.97976C357.396 1.90869 359.075 0.229756 361.146 0.229756H435.206C437.277 0.229756 438.956 1.90869 438.956 3.97976V13.9692C438.956 16.0402 437.277 17.7192 435.206 17.7192H361.146C359.075 17.7192 357.396 16.0402 357.396 13.9692V3.97976ZM357.396 96.0299C357.396 93.9589 359.075 92.2799 361.146 92.2799H434.975C437.046 92.2799 438.725 93.9589 438.725 96.0299V106.019C438.725 108.09 437.046 109.769 434.975 109.769H361.146C359.075 109.769 357.396 108.09 357.396 106.019V96.0299ZM357.396 49.545C357.396 47.474 359.075 45.795 361.146 45.795H427.186C429.257 45.795 430.936 47.474 430.936 49.545V59.3044C430.936 61.3755 429.257 63.0544 427.186 63.0544H361.146C359.075 63.0544 357.396 61.3755 357.396 59.3044V49.545ZM507.685 95.3515C507.685 93.5652 506.415 92.0534 504.709 91.5261C503.516 91.1574 502.369 90.7183 501.27 90.2086C496.993 88.2141 493.251 85.4527 490.044 81.9241C486.99 78.7023 484.546 74.7136 482.713 69.9577C481.033 65.2017 480.193 60.3692 480.193 55.4598V54.9996V54.3092C480.193 49.2463 481.033 44.3372 482.713 39.5812C484.699 34.6721 487.143 30.7598 490.044 27.8448C493.099 24.3163 496.764 21.6314 501.041 19.7904C502.328 19.1821 503.521 18.6868 504.621 18.3046C506.352 17.7031 507.685 16.1471 507.685 14.3149V4.55652C507.685 2.27353 505.658 0.509058 503.425 0.982246C499.788 1.7527 496.474 2.80602 493.481 4.14208C486.761 7.05707 481.033 10.9691 476.298 15.8785C471.563 20.7879 467.822 26.6175 465.073 33.3676C462.323 40.1177 460.949 47.175 460.949 54.539V54.9993V55.6896C460.949 63.2071 462.323 70.2644 465.073 76.8613C467.516 83.4583 471.182 89.2113 476.069 94.1207C480.957 99.1836 486.684 103.096 493.252 105.857C496.277 107.208 499.672 108.269 503.438 109.042C505.668 109.5 507.685 107.737 507.685 105.46V95.3515ZM570 55L570 54.3096C570 46.7922 568.625 39.7348 565.876 33.1379C563.127 26.3878 559.385 20.5579 554.65 15.6488C550.068 10.7397 544.417 6.90392 537.697 4.14244C534.904 2.79563 531.661 1.7362 527.968 0.964169C525.739 0.498144 523.722 2.26276 523.722 4.53985V15.0208C523.722 16.6331 524.752 18.0649 526.281 18.5768L526.471 18.6403C527.846 19.1006 528.915 19.4842 529.679 19.791C533.955 21.7854 537.697 24.5469 540.904 28.0754C543.959 31.2973 546.403 35.2859 548.236 40.0419C549.916 44.7978 550.756 49.6303 550.756 54.5398V55V55.6904C550.756 60.7533 549.916 65.6624 548.236 70.4183C546.25 75.3274 543.806 79.2398 540.904 82.1547C537.85 85.6832 534.184 88.3681 529.907 90.2091C528.842 90.7031 527.754 91.1308 526.645 91.4923C524.965 92.0396 523.722 93.542 523.722 95.309V105.484C523.722 107.753 525.725 109.511 527.938 109.01C531.115 108.291 534.291 107.24 537.468 105.857C543.73 103.249 549.457 99.3373 554.65 94.121C559.69 88.7514 563.432 82.9218 565.876 76.6318C568.625 69.8817 570 62.8244 570 55.4604L570 55Z" fill="#3C5DF9"/>
</svg>
